<svg width="72" height="18" viewBox="0 0 72 18" fill="none" xmlns="http://www.w3.org/2000/svg">
<g clip-path="url(#clip0_811_542)">
<path d="M28.4143 10.5429L32.3871 15.4286H29.25L25.7143 10.9414V15.4286H23.1429V2.57143H25.7143V10.1314L28.98 6.42857H32.2586L28.4143 10.5429ZM18.1286 6.17143C16.9857 6.18853 15.9239 6.76507 15.2871 7.71429V6.42857H12.8571V15.4286H15.4286V11.2243C15.3603 10.6074 15.5514 9.98993 15.9561 9.51941C16.3608 9.04889 16.9427 8.76763 17.5629 8.74286C19.0543 8.74286 19.2857 10.2086 19.2857 11.2243V15.4286H21.8571V10.6586C21.8571 7.83 20.9186 6.17143 18.18 6.17143H18.1286ZM41.1429 11.1343C41.1527 11.3227 41.1527 11.5116 41.1429 11.7H34.3929V11.79C34.6192 12.8975 35.6163 13.6767 36.7457 13.6286C37.6221 13.6667 38.4762 13.3464 39.1114 12.7414L40.8214 14.0271C39.7255 15.1456 38.2075 15.7481 36.6429 15.6857C35.3464 15.7677 34.078 15.2838 33.1656 14.359C32.2532 13.4343 31.7863 12.1596 31.8857 10.8643C31.8591 9.58681 32.3647 8.35575 33.2815 7.46575C34.1984 6.57575 35.4439 6.10691 36.72 6.17143C39.1371 6.17143 41.1429 7.88143 41.1429 11.1343ZM38.7514 10.0286C38.7323 9.51389 38.5026 9.02966 38.1161 8.6893C37.7295 8.34894 37.2201 8.18236 36.7071 8.22857C35.5765 8.10634 34.5527 8.90267 34.3929 10.0286H38.7514ZM2.57143 2.57143H0V15.4286H7.71429V12.8571H2.57143V2.57143ZM48.8571 2.57143H51.4286V15.4286H48.9986V14.5286C48.3728 15.2995 47.4191 15.7287 46.4271 15.6857C45.2193 15.6547 44.0777 15.1266 43.2721 14.226C42.4665 13.3255 42.0683 12.1324 42.1714 10.9286C42.0487 9.72251 42.4383 8.52036 43.2452 7.61562C44.0521 6.71089 45.2021 6.18684 46.4143 6.17143C47.3163 6.13193 48.1964 6.45618 48.8571 7.07143V2.57143ZM49.05 10.9286C49.1318 10.3279 48.9495 9.72116 48.5501 9.26506C48.1507 8.80897 47.5734 8.54817 46.9671 8.54999C45.7371 8.63931 44.8051 9.6971 44.8714 10.9286C44.8051 12.16 45.7371 13.2178 46.9671 13.3072C47.5734 13.309 48.1507 13.0482 48.5501 12.5921C48.9495 12.136 49.1318 11.5293 49.05 10.9286ZM10.2857 2.31429C9.42787 2.3265 8.72577 3.00051 8.67857 3.85714C8.67857 4.74474 9.39811 5.46429 10.2857 5.46429C11.1733 5.46429 11.8929 4.74474 11.8929 3.85714C11.8457 3.00051 11.1436 2.3265 10.2857 2.31429ZM9 15.4286H11.5714V6.42857H9V15.4286ZM72 1.28571V16.7143C72 17.4244 71.4244 18 70.7143 18H55.2857C54.5756 18 54 17.4244 54 16.7143V1.28571C54 0.575634 54.5756 0 55.2857 0H70.7143C71.4244 0 72 0.575634 72 1.28571ZM59.1429 6.42857H56.5714V15.4286H59.1429V6.42857ZM59.4643 3.85714C59.4643 2.96954 58.7447 2.25 57.8571 2.25C56.9695 2.25 56.25 2.96954 56.25 3.85714C56.25 4.74474 56.9695 5.46429 57.8571 5.46429C58.7447 5.46429 59.4643 4.74474 59.4643 3.85714ZM69.4286 10.6586C69.4286 7.83 68.49 6.17143 65.7514 6.17143C64.5903 6.17157 63.5055 6.75011 62.8586 7.71429V6.42857H60.4286V15.4286H63V11.2243C62.9317 10.6074 63.1228 9.98993 63.5275 9.51941C63.9322 9.04889 64.5142 8.76763 65.1343 8.74286C66.6257 8.74286 66.8571 10.2086 66.8571 11.2243V15.4286H69.4286V10.6586Z" fill="#A7AAB4"/>
</g>
<defs>
<clipPath id="clip0_811_542">
<rect width="72" height="18" fill="white"/>
</clipPath>
</defs>
</svg>
