<svg width="72" height="18" viewBox="0 0 72 18" fill="none" xmlns="http://www.w3.org/2000/svg">
<g clip-path="url(#clip0_811_625)">
<path d="M23.0686 7.02663C23.0686 5.74505 21.8223 4.38391 19.6657 4.38391C17.244 4.38391 14.5836 6.16046 14.177 9.70471C13.7616 13.2843 15.9889 14.8753 18.2339 14.8753C20.4789 14.8753 21.6544 14.0002 22.8564 12.8335C21.8223 11.5343 20.4877 12.1353 20.2314 12.2679C19.9486 12.4093 19.5862 12.6037 18.8438 12.6037C17.9776 12.6037 17.0937 12.2149 17.0937 10.5974C22.6443 10.0494 23.0686 8.30822 23.0686 7.02663ZM20.3198 7.23876C20.2844 7.63649 20.1253 8.31706 17.3147 8.69712C17.9069 6.59355 19.0382 6.43445 19.5597 6.43445C20.0458 6.43445 20.3551 6.81451 20.3198 7.23876ZM10.9156 7.58346C10.9156 7.58346 9.72239 11.331 9.62516 11.6403C9.58981 11.3222 8.71479 4.59604 8.71479 4.59604C6.68193 4.59604 5.59479 6.04556 5.02029 7.57462C5.02029 7.57462 3.57077 11.331 3.44703 11.6492C3.43819 11.3575 3.22606 7.61882 3.22606 7.61882C3.10233 5.74505 1.38765 4.60488 0 4.60488L1.67932 14.7957C3.80941 14.7869 4.95842 13.3462 5.55944 11.8171C5.55944 11.8171 6.84102 8.50267 6.89406 8.35241C6.90289 8.49383 7.81326 14.7957 7.81326 14.7957C9.95219 14.7957 11.1012 13.4434 11.7199 11.9674L14.7162 4.60488C12.6037 4.60488 11.4901 6.04556 10.9156 7.58346ZM30.9172 4.36624C29.6002 4.36624 28.5927 5.08216 27.7442 6.13394V6.1251L28.5043 0C26.7542 0 25.3312 1.52023 25.0572 3.78289L23.7315 14.7162C24.7391 14.7162 25.8085 14.4245 26.383 13.682C26.8957 14.3449 27.6646 14.8753 28.8048 14.8753C31.7569 14.8753 33.7809 11.4459 33.7809 8.22867C33.7632 5.29428 32.3402 4.36624 30.9172 4.36624ZM30.6432 9.62516C30.3338 11.4194 29.3351 12.6391 28.3717 12.6391C27.3995 12.6391 26.984 12.206 26.984 12.206C27.1697 10.6328 27.2846 9.66936 27.6381 8.83853C27.9916 8.00771 28.8313 6.68193 29.7063 6.68193C30.5636 6.68193 30.9525 7.8221 30.6432 9.62516ZM41.1522 4.60488H39.0928L39.1017 4.49881C39.2431 3.15536 39.5613 2.44827 40.6131 2.33337C41.329 2.26266 41.6472 1.89145 41.7267 1.48487C41.7886 1.16669 41.983 0.0618697 41.983 0.0618697C37.8466 0.0353541 36.5473 1.82074 36.2115 4.54301L36.2026 4.60488H36.1584C35.4867 4.60488 34.7443 5.36499 34.6205 6.32839L34.5763 6.68193H35.9552L34.7973 16.2452L34.4438 17.9599C34.488 17.9599 34.541 17.9687 34.5852 17.9687C36.5208 17.898 37.7582 16.369 38.0322 14.1505L38.9337 6.68193H39.579C40.2153 6.68193 40.9578 6.04556 41.0903 4.98493L41.1522 4.60488ZM51.8645 4.42811C49.4869 4.42811 47.242 6.17813 46.5526 8.92692C45.8631 11.6757 46.9061 14.9283 50.4062 14.9283C53.8974 14.9283 55.9126 11.5431 55.9126 8.72363C55.9126 5.92182 54.0123 4.42811 51.8645 4.42811ZM52.8279 9.53678C52.7042 10.783 52.1562 12.6745 50.6536 12.6745C49.1422 12.6745 49.3544 10.4648 49.5046 9.41304C49.6637 8.29054 50.2913 6.69077 51.6436 6.69077C52.8544 6.69077 52.9693 8.13145 52.8279 9.53678ZM67.659 7.58346C67.659 7.58346 66.4658 11.331 66.3685 11.6403C66.3332 11.3222 65.4582 4.59604 65.4582 4.59604C63.4253 4.59604 62.3382 6.04556 61.7637 7.57462C61.7637 7.57462 60.3142 11.331 60.1904 11.6492C60.1816 11.3575 59.9694 7.61882 59.9694 7.61882C59.8457 5.74505 58.131 4.60488 56.7434 4.60488L58.4139 14.7957C60.544 14.7869 61.693 13.3462 62.294 11.8171C62.294 11.8171 63.5756 8.50267 63.6198 8.35241C63.6286 8.49383 64.539 14.7957 64.539 14.7957C66.6779 14.7957 67.8269 13.4434 68.4456 11.9674L71.4419 4.60488C69.3383 4.60488 68.2246 6.04556 67.659 7.58346ZM43.0967 0.0618697L41.3643 14.0356L41.0108 15.7591C41.055 15.7591 41.108 15.7679 41.1522 15.7679C43.0171 15.7414 44.3429 14.1063 44.5904 12.0469L45.5892 4.03037C45.8897 1.5821 44.4313 0.0618697 43.0967 0.0618697Z" fill="#A7AAB4"/>
</g>
<defs>
<clipPath id="clip0_811_625">
<rect width="71.4419" height="18" fill="white"/>
</clipPath>
</defs>
</svg>
