<svg width="65" height="18" viewBox="0 0 65 18" fill="none" xmlns="http://www.w3.org/2000/svg">
<g clip-path="url(#clip0_811_619)">
<path d="M0 4.3561H3.83597L6.06278 10.0613L8.32211 4.3561H12.0606L6.43663 17.8795H2.68193L4.22607 14.3036L0 4.3561ZM15.9453 4.12854C13.0683 4.12854 11.2478 6.71295 11.2478 9.2811C11.2478 12.1743 13.2471 14.4662 15.8965 14.4662C17.8795 14.4662 18.6272 13.2634 18.6272 13.2634V14.2061H21.9756V4.3561H18.6272V5.25008C18.611 5.25008 17.782 4.12854 15.9453 4.12854ZM16.6605 7.2981C17.9933 7.2981 18.676 8.35461 18.676 9.29735C18.676 10.3214 17.9445 11.3291 16.6605 11.3291C15.6039 11.3291 14.645 10.4676 14.645 9.34611C14.645 8.20833 15.4089 7.2981 16.6605 7.2981ZM23.1133 14.2061V0H26.608V5.28259C26.608 5.28259 27.4369 4.12854 29.1761 4.12854C31.3054 4.12854 32.557 5.72145 32.557 7.98077V14.2061H29.0786V8.82598C29.0786 8.06204 28.721 7.31435 27.8921 7.31435C27.0468 7.31435 26.608 8.06204 26.608 8.82598V14.2061H23.1133ZM38.5222 4.12854C35.2227 4.12854 33.2559 6.63168 33.2559 9.32986C33.2559 12.3856 35.629 14.4824 38.5385 14.4824C41.3505 14.4824 43.8048 12.4832 43.8048 9.37862C43.8048 5.98151 41.2204 4.12854 38.5222 4.12854ZM38.5548 7.31435C39.725 7.31435 40.5215 8.2896 40.5215 9.31361C40.5215 10.1913 39.7738 11.2804 38.5548 11.2804C37.4332 11.2804 36.6043 10.3864 36.6043 9.29735C36.6043 8.27334 37.2869 7.31435 38.5548 7.31435ZM49.6238 4.12854C46.3242 4.12854 44.3575 6.63168 44.3575 9.32986C44.3575 12.3856 46.7306 14.4824 49.6401 14.4824C52.452 14.4824 54.9064 12.4832 54.9064 9.37862C54.9064 5.98151 52.3382 4.12854 49.6238 4.12854ZM49.6563 7.31435C50.8266 7.31435 51.6231 8.2896 51.6231 9.31361C51.6231 10.1913 50.8754 11.2804 49.6563 11.2804C48.5348 11.2804 47.7058 10.3864 47.7058 9.29735C47.7058 8.27334 48.4047 7.31435 49.6563 7.31435ZM57.6696 9.76872C58.9537 9.76872 59.9939 10.809 59.9939 12.0931C59.9939 13.3771 58.9537 14.4174 57.6696 14.4174C56.3855 14.4174 55.3453 13.3771 55.3453 12.0931C55.3453 10.809 56.3855 9.76872 57.6696 9.76872ZM60.7579 8.92351H56.5806L60.2865 0H64.4476L60.7579 8.92351Z" fill="#A7AAB4"/>
</g>
<defs>
<clipPath id="clip0_811_619">
<rect width="64.4476" height="18" fill="white"/>
</clipPath>
</defs>
</svg>
