<svg width="94" height="18" viewBox="0 0 94 18" fill="none" xmlns="http://www.w3.org/2000/svg">
<g clip-path="url(#clip0_811_622)">
<path d="M61.993 5.29973C65.9747 5.29973 68.2329 8.34131 68.0301 12.5627H58.6381C58.9089 14.3506 60.5349 15.6117 62.334 15.4291C63.5651 15.4584 64.7567 14.9937 65.6429 14.1388L67.2835 15.9176C65.996 17.2457 64.2003 17.9573 62.3525 17.8716C58.3431 17.8716 55.7532 15.1987 55.7532 11.5857C55.7154 9.91527 56.3591 8.30145 57.5362 7.11565C58.7133 5.92986 60.3224 5.27425 61.993 5.29973ZM19.0145 5.29973C22.9962 5.29973 25.2544 8.34131 25.0516 12.5627H15.6688C15.9395 14.3467 17.5598 15.6065 19.3555 15.4291C20.5866 15.4584 21.7781 14.9937 22.6644 14.1388L24.305 15.9176C23.0174 17.2457 21.2218 17.9573 19.374 17.8716C15.3646 17.8716 12.7747 15.1987 12.7747 11.5857C12.7369 9.91527 13.3806 8.30145 14.5577 7.11565C15.7348 5.92986 17.3439 5.27425 19.0145 5.29973ZM79.6526 7.55788L77.5051 8.81138C76.9031 7.91723 75.8817 7.3978 74.8045 7.43806C73.4312 7.43806 72.7307 8.11089 72.7307 8.88511C72.7307 9.65933 73.8368 9.99114 75.5788 10.3783C75.6184 10.3869 75.6581 10.3957 75.698 10.4045L75.8176 10.4314C75.8776 10.445 75.9377 10.4589 75.9978 10.473L76.1183 10.5018C76.1584 10.5115 76.1986 10.5214 76.2387 10.5314L76.3592 10.562L76.4795 10.5936C78.1819 11.0495 79.8001 11.8419 79.8001 13.9729C79.8001 15.6411 78.3531 17.8808 74.9244 17.8624C72.7718 18.0203 70.7178 16.9361 69.6338 15.0697L71.9473 13.8254C72.5698 14.94 73.7587 15.6178 75.035 15.5858C76.482 15.5858 77.2286 14.8392 77.2286 13.9913C77.2286 13.1433 75.8276 12.8115 74.3068 12.4981C74.2657 12.4895 74.2246 12.4807 74.1834 12.4719L74.06 12.4449C74.0394 12.4404 74.0189 12.4358 73.9983 12.4312L73.875 12.4031C71.9651 11.9619 70.1316 11.2179 70.1316 8.90355C70.1316 6.99564 71.9749 5.21678 74.7953 5.21678C76.711 5.10147 78.5494 5.98756 79.6526 7.55788ZM53.3291 0V17.6228H50.7668V15.9637C49.7847 17.1797 48.302 17.882 46.739 17.8717C45.1003 17.8577 43.5368 17.1822 42.4034 15.9985C41.2701 14.8148 40.6631 13.2234 40.7204 11.5857C40.6498 9.94199 41.2552 8.34108 42.3956 7.15533C43.5361 5.96959 45.1123 5.30239 46.7574 5.30895C48.3013 5.29752 49.7704 5.97296 50.7668 7.15233V0H53.3291ZM10.5995 5.59467V7.9542L3.35496 15.3277H10.7285V17.6504H0V15.3001L7.2445 7.92655H0.165905V5.59467H10.5995ZM84.4362 0V11.5396L89.865 5.53015H92.9803L88.2705 10.7008L93.0909 17.6228H90.206L86.4639 12.2677L84.4362 14.489V17.632H81.8739V0H84.4362ZM33.1072 5.30895C36.1488 5.30895 38.7111 7.29058 38.7111 10.5718V17.6228H36.075V10.8944C36.075 8.92198 35.1165 7.733 33.1809 7.733C32.3343 7.67042 31.5037 7.98752 30.9143 8.59838C30.3248 9.20923 30.0374 10.0506 30.1301 10.8944V17.6228H27.5217V10.5718C27.5217 7.29058 30.0656 5.30895 33.1072 5.30895ZM47.0893 7.76986C44.9818 7.76986 43.2734 9.47826 43.2734 11.5857C43.2734 13.6931 44.9818 15.4015 47.0893 15.4015C49.1967 15.4015 50.9051 13.6931 50.9051 11.5857C50.9051 9.47826 49.1967 7.76986 47.0893 7.76986ZM58.6288 10.5442L65.2005 10.5534C65.1113 8.89145 63.6918 7.61643 62.0299 7.70535C60.3245 7.60523 58.8352 8.84834 58.6288 10.5442ZM15.6688 10.5442L22.222 10.5534C22.1279 8.89511 20.7099 7.62555 19.0514 7.71456C17.356 7.62408 15.8792 8.8595 15.6688 10.5442Z" fill="#A7AAB4"/>
</g>
<defs>
<clipPath id="clip0_811_622">
<rect width="93.0909" height="18" fill="white"/>
</clipPath>
</defs>
</svg>
