<svg width="104" height="33" viewBox="0 0 104 33" fill="none" xmlns="http://www.w3.org/2000/svg">
<g clip-path="url(#clip0_812_795)">
<path d="M103.17 16.4809C102.625 16.1286 101.921 16.2567 101.536 16.8011C101.472 16.8972 100.063 18.9468 97.5972 18.9468C96.6365 18.9468 95.8999 18.6586 95.4195 18.0501C95.3875 18.0181 95.3555 17.954 95.3234 17.922C95.3234 17.922 95.3555 17.922 95.3555 17.89C101.184 14.5594 101.12 11.7091 100.864 10.6523C100.511 9.37131 99.3906 8.53866 97.9495 8.53866C94.6189 8.53866 92.4092 12.2536 92.4092 15.7123C92.4092 16.1606 92.4412 16.5769 92.5052 16.9933C91.3203 17.8579 89.4949 18.9468 87.8936 18.9468C86.9649 18.9468 86.2604 18.6586 85.812 18.1141C85.6519 17.922 85.5238 17.6978 85.4277 17.4736C89.8792 16.1926 91.5765 13.3424 91.2563 11.0686C91.0641 9.59549 89.9432 8.53866 88.5662 8.53866C85.4597 8.53866 83.218 11.8052 82.8657 15.0077C82.2572 14.9437 81.7448 14.7835 81.2645 14.4633C81.3285 13.9509 81.3926 13.4385 81.3926 12.9581C81.3926 11.9013 81.2004 11.0046 80.8161 10.3C80.3037 9.37131 79.439 8.85891 78.4463 8.85891C77.9018 8.85891 77.4215 9.14714 77.1332 9.65954C76.5568 10.7164 76.9411 12.766 77.9979 14.3992C78.1901 14.7195 78.4142 15.0077 78.6704 15.2959C78.094 17.1534 76.877 18.9148 75.3398 18.9148C74.6353 18.9148 74.1229 18.6906 73.6745 18.2422C73.0661 17.5697 72.6497 16.3848 72.5216 14.8796C76.877 9.43536 79.0227 4.08718 77.8058 1.55721C77.3894 0.692533 76.6208 0.212158 75.6921 0.212158C72.6818 0.212158 70.8884 4.11921 70.1838 12.1575C70.1518 12.6379 70.1198 13.2463 70.1198 13.8868C68.5185 16.0645 65.8604 18.9148 63.4906 18.9148C62.8181 18.9148 62.3057 18.6906 61.9854 18.2102C61.9534 18.1782 61.9214 18.1141 61.8893 18.0821C61.9214 18.0821 61.9534 18.0501 61.9854 18.0181C67.846 14.2391 67.7499 11.3889 67.4617 10.3641C67.1414 9.24321 66.1166 8.50664 64.8036 8.50664C61.4089 8.50664 59.1032 12.4137 59.1032 16.0645C59.1032 16.3848 59.1352 16.705 59.1672 17.0253C58.0783 17.7939 57.2137 18.4984 56.349 19.171C56.4771 18.1782 56.6693 16.8972 56.8934 15.0077C56.9575 14.6234 56.9895 14.3032 57.0215 14.143C57.2137 12.766 54.9399 12.4777 54.6837 14.0149C54.4275 15.6162 53.755 18.9148 51.8655 18.9148C50.7446 18.9148 50.1361 17.6658 50.2642 15.8404C50.4244 12.9581 51.9936 10.6203 53.9151 10.6203C54.5876 10.6203 54.9079 11.3248 54.9079 11.3248C55.5163 12.4137 57.4058 11.485 56.9895 10.3321C56.7974 9.81966 56.1889 8.50664 53.9791 8.50664C49.4956 8.50664 48.0865 13.0542 47.8944 16.0645C47.8624 16.5449 47.8624 17.0253 47.9264 17.5057C47.2859 18.2743 46.5493 18.9148 45.8128 18.9148C45.1082 18.9148 44.6599 18.1141 44.9161 16.2887C45.1723 14.5273 45.3644 13.0862 45.4605 12.2536C46.0049 8.44259 41.2332 8.53866 41.2332 8.53866C41.2332 8.53866 41.1691 6.29691 39.3437 6.29691C38.415 6.29691 37.5503 7.03349 37.5503 8.41056C37.5503 9.69156 38.6071 10.3321 38.6071 10.3321C38.383 12.3176 37.4542 18.9148 35.3726 18.9148C34.4439 18.9148 34.3798 17.922 34.4759 17.2174C34.604 16.2567 34.7641 14.5914 34.8282 14.1751C35.0203 12.798 32.7466 12.5098 32.4904 14.047C32.2342 15.6482 31.5616 18.9468 29.6722 18.9468C28.5513 18.9468 27.9428 17.5377 28.0389 15.8083C28.199 12.8941 29.7682 10.6523 31.6897 10.6523C32.3623 10.6523 32.6825 11.3569 32.6825 11.3569C33.1949 12.4457 35.1484 11.6771 34.7641 10.3641C34.604 9.78764 33.9635 8.53866 31.7538 8.53866C27.2703 8.53866 25.8612 13.0862 25.669 16.0966C25.637 16.5769 25.637 17.0253 25.669 17.4416C25.0285 18.3063 24.2599 18.9468 23.5234 18.9468C22.8508 18.9468 22.3384 18.5945 22.4665 17.0893C22.5306 16.3848 23.3312 11.549 23.2992 10.6843C23.2031 9.21119 22.5306 8.57069 20.8973 8.57069C19.168 8.57069 17.887 9.46739 17.3425 10.0118C17.3425 10.0118 18.1432 3.92706 18.3033 2.74213C18.4634 1.52518 16.0936 1.49316 15.9655 2.74213C15.9014 3.28656 15.2609 8.09031 14.6845 12.5738C13.3394 15.5201 10.6813 20.0036 6.74225 20.0036C-0.71958 20.0036 2.7071 3.73491 9.72058 3.73491C11.3539 3.73491 10.6173 6.36096 9.52842 7.93019C8.75982 9.08309 10.7134 10.3641 11.8022 8.53866C14.8126 3.44668 12.2826 1.55721 9.8807 1.55721C-0.495405 1.55721 -4.33841 22.2454 6.45402 22.2454C10.0088 22.2454 12.4107 20.2598 13.9479 18.0821C13.7878 19.2991 13.6917 20.1317 13.6597 20.2918C13.4675 21.5728 15.8694 21.4768 15.9975 20.3879C16.0936 19.7154 16.4458 16.8652 16.7341 14.6554C16.8942 13.4065 18.4314 11.1007 20.1607 11.1007C20.5771 11.1007 20.8333 11.517 20.8012 11.8693C20.7372 12.2856 20.0006 17.6978 20.0326 18.4984C20.1607 20.7722 21.794 21.2846 23.3312 21.2846C24.5482 21.2846 25.5409 20.7082 26.3416 19.8115C26.886 20.7082 27.7186 21.2846 28.8715 21.2846C31.4656 21.2846 32.3623 19.4272 32.3623 19.4272C32.3623 19.4272 32.6825 21.2846 34.9243 21.2846C39.4718 21.2846 40.5286 13.3744 40.7528 10.7164C41.009 10.7164 42.6103 10.8124 42.8985 11.7091C43.1547 12.5738 42.3541 15.328 42.29 18.1782C42.258 19.6834 42.8024 21.2846 45.1723 21.2846C46.6134 21.2846 47.7663 20.6121 48.5669 19.8755C49.1113 20.7402 49.944 21.2846 51.0649 21.2846C52.3459 21.2846 53.2105 20.8683 53.755 20.452C53.7229 20.7082 53.6909 20.9323 53.6589 21.1885V21.2206C53.6589 21.1885 47.6702 25.5119 47.6702 29.5791C47.6702 31.1803 48.4068 32.2051 50.2963 32.2051C54.0432 32.2051 55.2281 27.1772 55.7725 23.046C55.8046 22.8538 55.8366 22.6617 55.8366 22.5016C56.4131 22.0532 56.9575 21.6369 57.5019 21.2206C58.2705 20.6121 59.0391 20.0356 59.9038 19.3951C59.9358 19.4592 59.9999 19.5232 60.0319 19.5873C60.8325 20.6761 62.0174 21.2526 63.4586 21.2526C66.1807 21.2526 68.7107 19.171 70.5041 17.1214C70.7923 18.1141 71.2086 19.0749 71.9132 19.8435C72.7778 20.7722 73.9628 21.2846 75.3078 21.2846C77.9018 21.2846 79.6952 19.203 80.656 16.8011C81.3605 17.1214 82.1612 17.3135 82.9938 17.3776C83.186 18.2102 83.5062 18.9788 84.0186 19.5873C84.6591 20.3559 85.844 21.2846 87.9257 21.2846C90.0073 21.2846 92.0569 20.1637 93.434 19.235C93.498 19.3311 93.5621 19.4272 93.6261 19.5232C94.2666 20.3239 95.5156 21.2846 97.6292 21.2846C101.376 21.2846 103.458 18.2102 103.554 18.0821C103.842 17.5697 103.682 16.8331 103.17 16.4809ZM50.5845 29.9314C50.2322 29.9314 49.976 29.7072 49.976 29.2588C49.976 27.2092 53.1465 24.4231 53.1785 24.4231C52.7942 27.1772 51.6733 29.9314 50.5845 29.9314ZM64.7395 10.7164C65.0278 10.7164 65.0918 10.9405 65.1559 11.0686C65.284 11.517 64.8356 13.2143 61.409 15.5842C61.6011 13.3424 62.9782 10.7164 64.7395 10.7164ZM75.6281 2.61403C76.6208 2.61403 75.8202 6.00869 72.6497 10.7484C73.3863 4.43946 74.4111 2.61403 75.6281 2.61403ZM88.31 10.7164C88.8224 10.7164 88.8544 11.2288 88.8864 11.4209C89.0145 12.3817 88.1178 14.111 85.1715 15.1038C85.4918 13.0222 86.8688 10.7164 88.31 10.7164ZM97.9175 10.7164C98.2697 10.7164 98.4619 10.9726 98.558 11.2928C98.7501 11.9653 97.8534 13.6627 94.715 15.5842C94.779 13.3424 96.1241 10.7164 97.9175 10.7164Z" fill="#A7AAB4"/>
</g>
<defs>
<clipPath id="clip0_812_795">
<rect width="103.696" height="32" fill="white" transform="translate(0 0.212158)"/>
</clipPath>
</defs>
</svg>
