<svg width="114" height="28" viewBox="0 0 114 28" fill="none" xmlns="http://www.w3.org/2000/svg">
<path d="M36.1749 21.9444L37.5873 18.7493C39.1135 19.8587 41.141 20.4356 43.1456 20.4356C44.6263 20.4356 45.5603 19.8809 45.5603 19.0377C45.5375 16.6858 36.6988 18.5274 36.6305 12.6253C36.6077 9.6298 39.3413 7.3222 43.214 7.3222C45.5148 7.3222 47.8156 7.87691 49.4557 9.14166L48.1345 12.4034C46.631 11.4715 44.763 10.8058 42.9862 10.8058C41.7788 10.8058 40.9815 11.3605 40.9815 12.0705C41.0043 14.3781 49.9113 13.1134 50.0024 18.7493C50.0024 21.8113 47.3372 23.9636 43.5101 23.9636C40.7081 23.9636 38.134 23.3201 36.1749 21.9444ZM90.3689 17.5955L94.2643 19.7034C92.8064 22.2551 90.0272 23.9636 86.8152 23.9636C82.0997 23.9636 78.2726 20.2359 78.2726 15.6429C78.2726 11.0499 82.0997 7.3222 86.8152 7.3222C90.0044 7.3222 92.8064 9.0529 94.2643 11.5824L90.3689 13.6903C89.6627 12.4921 88.3415 11.6711 86.8152 11.6711C84.5599 11.6711 82.7375 13.4462 82.7375 15.6429C82.7375 17.8396 84.5599 19.6146 86.8152 19.6146C88.3415 19.6146 89.6627 18.7937 90.3689 17.5955ZM51.9615 0.42157H56.8365V23.6529H51.9615V0.42157ZM96.1778 0.42157H101.053V14.0675L106.566 7.65503H112.534L105.723 15.3766L113.081 23.6529H106.839L101.053 16.6858V23.6529H96.1778V0.42157ZM71.3247 17.6399V13.7125C70.6185 12.5587 69.1606 11.6711 67.5204 11.6711C65.2652 11.6711 63.4427 13.4462 63.4427 15.6429C63.4427 17.8396 65.2652 19.6146 67.5204 19.6146C69.1606 19.6146 70.6185 18.7715 71.3247 17.6399ZM71.3247 7.65503H76.1996V23.6308H71.3247V21.7447C70.5274 23.0539 68.5455 23.9636 66.4725 23.9636C62.1898 23.9636 58.8184 20.2359 58.8184 15.6207C58.8184 11.0055 62.1898 7.3222 66.4725 7.3222C68.5455 7.3222 70.5274 8.23193 71.3247 9.54105V7.65503Z" fill="#A7AAB4"/>
<path d="M6.03674 17.6177C6.03674 19.2374 4.69271 20.5465 3.02976 20.5465C1.36681 20.5465 0.0227814 19.2374 0.0227814 17.6177C0.0227814 15.9979 1.36681 14.6888 3.02976 14.6888H6.03674V17.6177ZM7.54023 17.6177C7.54023 15.9979 8.88426 14.6888 10.5472 14.6888C12.2102 14.6888 13.5542 15.9979 13.5542 17.6177V24.9399C13.5542 26.5596 12.2102 27.8688 10.5472 27.8688C8.88426 27.8688 7.54023 26.5596 7.54023 24.9399V17.6177Z" fill="#A7AAB4"/>
<path d="M10.5472 5.85777C8.88426 5.85777 7.54023 4.54865 7.54023 2.92888C7.54023 1.30912 8.88426 0 10.5472 0C12.2102 0 13.5542 1.30912 13.5542 2.92888V5.85777H10.5472ZM10.5472 7.3444C12.2102 7.3444 13.5542 8.65352 13.5542 10.2733C13.5542 11.893 12.2102 13.2022 10.5472 13.2022H3.00698C1.34403 13.2022 0 11.893 0 10.2733C0 8.65352 1.34403 7.3444 3.00698 7.3444H10.5472Z" fill="#A7AAB4"/>
<path d="M22.5979 10.2733C22.5979 8.65352 23.9419 7.3444 25.6049 7.3444C27.2678 7.3444 28.6119 8.65352 28.6119 10.2733C28.6119 11.893 27.2678 13.2022 25.6049 13.2022H22.5979V10.2733ZM21.0944 10.2733C21.0944 11.893 19.7504 13.2022 18.0874 13.2022C16.4245 13.2022 15.0805 11.893 15.0805 10.2733V2.92888C15.0805 1.30912 16.4245 0 18.0874 0C19.7504 0 21.0944 1.30912 21.0944 2.92888V10.2733Z" fill="#A7AAB4"/>
<path d="M18.0874 22.011C19.7504 22.011 21.0944 23.3201 21.0944 24.9399C21.0944 26.5596 19.7504 27.8688 18.0874 27.8688C16.4245 27.8688 15.0805 26.5596 15.0805 24.9399V22.011H18.0874ZM18.0874 20.5465C16.4245 20.5465 15.0805 19.2374 15.0805 17.6177C15.0805 15.9979 16.4245 14.6888 18.0874 14.6888H25.6277C27.2906 14.6888 28.6347 15.9979 28.6347 17.6177C28.6347 19.2374 27.2906 20.5465 25.6277 20.5465H18.0874Z" fill="#A7AAB4"/>
</svg>
