<svg width="145" height="28" viewBox="0 0 145 28" fill="none" xmlns="http://www.w3.org/2000/svg">
<path d="M11.9754 22.7425C12.5461 22.7425 13.0879 22.6895 13.5977 22.5708C14.1145 22.4522 14.5734 22.2659 14.9605 21.9891C15.3476 21.7237 15.6679 21.3594 15.9014 20.8953C16.1348 20.4363 16.2466 19.84 16.2466 19.1187C16.2466 17.7065 15.8655 16.7032 15.1082 16.0944C14.3489 15.4939 13.3363 15.1952 12.0911 15.1952H5.80164V22.7425H11.9754ZM11.6561 11.076C12.6808 11.076 13.5288 10.8221 14.2013 10.3069C14.8668 9.80112 15.19 8.96334 15.19 7.81437C15.19 7.17745 15.0823 6.6498 14.8668 6.2408C14.6443 5.83179 14.3489 5.51125 13.9758 5.28749C13.6057 5.05437 13.1876 4.89306 12.7017 4.80668C12.2258 4.70885 11.726 4.67138 11.2142 4.67138H5.80164V11.076H11.6561ZM12.4044 0.00268555C13.6605 0.00268555 14.7949 0.116125 15.8315 0.350288C16.8622 0.578207 17.7421 0.959113 18.4854 1.48156C19.2177 2.00296 19.7904 2.69712 20.2005 3.57133C20.6005 4.43306 20.8021 5.51125 20.8021 6.78718C20.8021 8.16718 20.5018 9.31926 19.9012 10.2403C19.2965 11.1603 18.4076 11.9148 17.2203 12.5008C18.8376 12.9857 20.0348 13.8402 20.829 15.0537C21.6272 16.2755 22.0173 17.7387 22.0173 19.4528C22.0173 20.8432 21.7619 22.039 21.253 23.0454C20.7382 24.0643 20.0378 24.8906 19.1748 25.5275C18.3048 26.1707 17.3051 26.6421 16.1857 26.9492C15.0783 27.2562 13.9289 27.4102 12.7516 27.4102H0.0169678V0.00268555H12.4044Z" fill="#A7AAB4"/>
<path d="M36.2685 12.225C35.6469 11.5079 34.5953 11.1197 33.3123 11.1197C32.4772 11.1197 31.7858 11.2665 31.2331 11.5652C30.6923 11.8597 30.2483 12.2271 29.9101 12.659C29.5729 13.0982 29.3424 13.5613 29.2087 14.0567C29.075 14.5396 28.9952 14.9777 28.9703 15.3649H37.4727C37.348 13.9744 36.892 12.9472 36.2685 12.225ZM30.2643 22.651C31.0465 23.4482 32.1779 23.8499 33.6435 23.8499C34.6971 23.8499 35.608 23.572 36.3722 23.0173C37.1295 22.4647 37.5904 21.8725 37.769 21.2585H42.3704C41.6311 23.6469 40.5087 25.3527 38.9772 26.3789C37.4647 27.4102 35.6189 27.9243 33.4689 27.9243C31.9704 27.9243 30.6215 27.6704 29.4113 27.1729C28.201 26.6682 27.1894 25.9605 26.3383 25.0384C25.5092 24.1122 24.8657 23.0173 24.4068 21.732C23.9528 20.453 23.7234 19.0365 23.7234 17.5015C23.7234 16.0174 23.9618 14.6311 24.4257 13.35C24.9006 12.0647 25.5561 10.9553 26.4181 10.0249C27.2832 9.08927 28.3078 8.3514 29.501 7.8123C30.6953 7.27425 32.0113 7.0047 33.4689 7.0047C35.0782 7.0047 36.4879 7.32732 37.6962 7.9861C38.9004 8.63448 39.8871 9.51389 40.6633 10.615C41.4385 11.715 41.9903 12.9722 42.3355 14.3814C42.6767 15.7895 42.7974 17.26 42.6986 18.8003H28.9703C28.9703 20.3687 29.4791 21.8538 30.2643 22.651Z" fill="#A7AAB4"/>
<path d="M50.1205 0.00268555V10.3371H50.2402C50.9037 9.18709 51.7428 8.35139 52.7744 7.83311C53.804 7.31066 54.8087 7.05256 55.7875 7.05256C57.1832 7.05256 58.3266 7.24406 59.2196 7.63849C60.1135 8.04021 60.8209 8.58347 61.3387 9.29012C61.8465 9.99365 62.2057 10.8523 62.4162 11.8638C62.6227 12.8733 62.7295 13.9869 62.7295 15.215V27.4102H57.4786V16.2047C57.4786 14.5708 57.2341 13.3427 56.7473 12.5393C56.2594 11.7348 55.3934 11.331 54.1442 11.331C52.7315 11.331 51.7099 11.7775 51.0773 12.659C50.4328 13.5404 50.1205 14.9912 50.1205 17.0102V27.4102H44.8716V0.00268555H50.1205Z" fill="#A7AAB4"/>
<path d="M76.7452 18.1915C76.4199 18.3039 76.0598 18.3986 75.6886 18.4808C75.3055 18.5568 74.9054 18.6182 74.4904 18.6723C74.0793 18.7243 73.6563 18.7836 73.2462 18.8607C72.8551 18.9408 72.464 19.0407 72.0919 19.1708C71.7128 19.2998 71.3805 19.4716 71.1072 19.688C70.8238 19.9076 70.5983 20.1824 70.4257 20.5123C70.2581 20.8432 70.1683 21.2731 70.1683 21.7809C70.1683 22.2659 70.2581 22.6749 70.4257 23.0111C70.5983 23.3441 70.8238 23.6043 71.1201 23.7968C71.4155 23.9893 71.7617 24.1246 72.1468 24.1996C72.5379 24.2808 72.9419 24.3109 73.356 24.3109C74.3836 24.3109 75.1758 24.133 75.7405 23.776C76.3022 23.4169 76.7252 22.9882 76.9896 22.4886C77.259 21.9891 77.4216 21.4854 77.4745 20.9775C77.5433 20.4665 77.5743 20.0544 77.5743 19.7453V17.7065C77.3478 17.9157 77.0814 18.077 76.7452 18.1915ZM66.4599 10.4693C66.9916 9.62525 67.6771 8.94149 68.5111 8.43049C69.3452 7.91429 70.2771 7.55108 71.3247 7.33357C72.3683 7.10981 73.4119 7.0047 74.4714 7.0047C75.4242 7.0047 76.388 7.07339 77.3807 7.21493C78.3575 7.35542 79.2504 7.63122 80.0605 8.0423C80.8697 8.45547 81.5291 9.02059 82.04 9.75846C82.5578 10.4776 82.8202 11.4517 82.8202 12.659V23.0017C82.8202 23.9009 82.8721 24.7553 82.9638 25.5733C83.0676 26.3986 83.336 27.0179 83.5894 27.4237L78.2517 27.4102C78.0951 27.1729 77.9654 26.8014 77.9045 26.4777C77.8426 26.1613 77.7997 25.8356 77.7758 25.5015C76.9447 26.3986 75.97 27.0293 74.8346 27.3894C73.7082 27.7443 72.5598 27.9243 71.3805 27.9243C70.4766 27.9243 69.6346 27.8046 68.8464 27.5736C68.0702 27.3426 67.3808 26.9846 66.7931 26.5006C66.2025 26.0073 65.7485 25.3954 65.4173 24.6544C65.088 23.9092 64.9184 23.0225 64.9184 21.9984C64.9184 20.8682 65.113 19.9378 65.4971 19.2093C65.8712 18.4808 66.3571 17.8949 66.9647 17.4609C67.5623 17.0238 68.2488 16.6949 69.026 16.4805C69.7962 16.264 70.5784 16.085 71.3536 15.9591C72.1408 15.8332 72.907 15.7312 73.6723 15.6521C74.4395 15.574 75.104 15.4627 75.6976 15.3066C76.2832 15.1546 76.7522 14.9236 77.0964 14.6311C77.4346 14.3377 77.5972 13.911 77.5743 13.3427C77.5743 12.7558 77.4745 12.2874 77.2939 11.9377C77.1123 11.5933 76.8669 11.3279 76.5666 11.1343C76.2583 10.9407 75.9111 10.8138 75.511 10.7461C75.104 10.6847 74.6729 10.6504 74.213 10.6504C73.1904 10.6504 72.3812 10.8876 71.8076 11.3435C71.2179 11.8129 70.8787 12.5851 70.7739 13.6633H65.532C65.6078 12.3759 65.9111 11.3133 66.4599 10.4693Z" fill="#A7AAB4"/>
<path d="M90.6571 7.57083V10.3371H90.7739C91.4353 9.18708 92.2884 8.35138 93.3479 7.8331C94.3985 7.31065 95.487 7.05255 96.5905 7.05255C97.9922 7.05255 99.1426 7.24404 100.032 7.63848C100.936 8.0402 101.64 8.58346 102.15 9.29011C102.672 9.99364 103.032 10.8522 103.241 11.8638C103.453 12.8733 103.557 13.9869 103.557 15.215V27.4102H98.3045V16.2047C98.3045 14.5708 98.0581 13.3427 97.5682 12.5393C97.0713 11.7348 96.2143 11.2186 94.9562 11.2186C93.5345 11.2186 92.4989 11.7774 91.8623 12.6589C91.2218 13.5404 90.9046 14.9912 90.9046 17.0102V27.4102H85.7085V7.57083H90.6571Z" fill="#A7AAB4"/>
<path d="M115.185 11.1197C114.345 11.1197 113.651 11.3133 113.093 11.715C112.524 12.1157 112.059 12.6236 111.704 13.2532C111.347 13.8787 111.101 14.5708 110.948 15.3284C110.806 16.085 110.726 16.8344 110.726 17.5795C110.726 18.2997 110.806 19.0292 110.948 19.7744C111.101 20.5154 111.335 21.1846 111.667 21.7945C112.003 22.3918 112.45 22.8831 113.015 23.2712C113.576 23.6574 114.26 23.8499 115.071 23.8499C116.329 23.8499 117.293 23.4836 117.968 22.7582C118.641 22.0286 119.057 21.0483 119.232 19.8202H124.279C123.932 22.4522 122.951 24.4629 121.335 25.8491C119.714 27.226 117.638 27.9243 115.11 27.9243C113.681 27.9243 112.383 27.6704 111.186 27.1729C109.991 26.6682 108.976 25.973 108.14 25.0759C107.304 24.1767 106.655 23.1079 106.18 21.8652C105.716 20.6205 105.483 19.254 105.483 17.771C105.483 16.2349 105.699 14.8039 106.129 13.4811C106.557 12.1636 107.19 11.0219 108.033 10.0644C108.868 9.10072 109.89 8.3514 111.098 7.8123C112.301 7.27425 113.676 7.0047 115.22 7.0047C116.349 7.0047 117.433 7.16393 118.481 7.46158C119.521 7.76547 120.455 8.23484 121.276 8.86448C122.098 9.48995 122.771 10.2695 123.287 11.1988C123.797 12.1282 124.088 13.2418 124.169 14.5146H119.045C118.706 12.25 117.418 11.1197 115.185 11.1197Z" fill="#A7AAB4"/>
<path d="M27.9017 1.84167H38.5522V4.54652H27.9017V1.84167Z" fill="#A7AAB4"/>
<path d="M138.205 12.225C137.575 11.5079 136.515 11.1197 135.248 11.1197C134.414 11.1197 133.721 11.2665 133.158 11.5652C132.616 11.8597 132.122 12.2271 131.789 12.659C131.457 13.0982 131.219 13.5613 131.08 14.0567C130.956 14.5396 130.869 14.9777 130.846 15.3649H139.413C139.273 13.9744 138.828 12.9472 138.205 12.225ZM132.136 22.651C132.921 23.4482 134.106 23.8499 135.583 23.8499C136.634 23.8499 137.543 23.572 138.302 23.0173C139.062 22.4647 139.532 21.8725 139.7 21.2585H144.301C143.566 23.6469 142.437 25.3527 140.915 26.3789C139.397 27.4102 137.559 27.9243 135.401 27.9243C133.898 27.9243 132.545 27.6704 131.343 27.1729C130.135 26.6682 129.122 25.9605 128.275 25.0384C127.437 24.1122 126.795 23.0173 126.338 21.732C125.884 20.453 125.658 19.0365 125.658 17.5015C125.658 16.0174 125.892 14.6311 126.357 13.35C126.828 12.0647 127.497 10.9553 128.354 10.0249C129.223 9.08927 130.239 8.3514 131.429 7.8123C132.624 7.27425 133.951 7.0047 135.401 7.0047C137.008 7.0047 138.424 7.32732 139.62 7.9861C140.827 8.63448 141.819 9.51389 142.589 10.615C143.365 11.715 143.922 12.9722 144.265 14.3814C144.602 15.7895 144.731 17.26 144.635 18.8003H130.846C130.846 20.3687 131.348 21.8538 132.136 22.651Z" fill="#A7AAB4"/>
</svg>
