<svg width="114" height="33" viewBox="0 0 114 33" fill="none" xmlns="http://www.w3.org/2000/svg">
<g clip-path="url(#clip0_812_802)">
<path d="M6.86108 0.40988C4.5715 1.36902 2.05448 4.07527 1.25953 7.4746C0.25276 11.7805 4.44234 13.6017 4.78596 13.0054C5.1904 12.3038 4.03526 12.0666 3.79746 9.83234C3.49017 6.94665 4.83172 3.72223 6.52028 2.30744C6.83396 2.04459 6.81909 2.41043 6.81909 3.08714C6.81909 4.29726 6.75225 15.1605 6.75225 17.4277C6.75225 20.4954 6.62553 21.4642 6.39789 22.4214C6.16743 23.3915 5.79669 24.0469 6.07743 24.2994C6.3913 24.5818 7.73134 23.91 8.50708 22.8274C9.43722 21.5289 9.76277 19.9695 9.82133 18.2761C9.89194 16.2347 9.88892 12.9954 9.89194 11.1477C9.89457 9.45313 9.92037 4.49101 9.86219 1.50797C9.84788 0.776287 7.81871 0.00864013 6.86108 0.40988Z" fill="#A7AAB4"/>
<path d="M88.1637 14.7668C88.0898 16.3616 87.7368 17.6082 87.2987 18.4875C86.4504 20.1898 84.6903 20.7184 83.943 18.2714C83.5357 16.9376 83.5167 14.7097 83.8095 12.8483C84.1076 10.9521 84.9398 9.51998 86.3179 9.64915C87.6771 9.7768 88.3133 11.5283 88.1637 14.7668ZM65.2487 24.6617C65.2303 27.3116 64.8132 29.6351 63.9189 30.3099C62.6504 31.2668 60.9454 30.549 61.2985 28.6153C61.6108 26.9042 63.0881 25.1567 65.2523 23.0215C65.2523 23.0215 65.2568 23.5084 65.2487 24.6617ZM64.9023 14.7512C64.8247 16.2038 64.4481 17.663 64.0373 18.4875C63.1892 20.1898 61.4163 20.7219 60.6816 18.2714C60.1793 16.5969 60.2996 14.4299 60.5481 13.0645C60.8707 11.2929 61.6524 9.64933 63.0565 9.64933C64.4216 9.64933 65.0947 11.147 64.9023 14.7512ZM51.6278 14.7291C51.5446 16.2674 51.2445 17.5534 50.7628 18.4875C49.8915 20.1782 48.1675 20.7142 47.4072 18.2714C46.8591 16.5098 47.0457 14.108 47.2737 12.8105C47.6121 10.8851 48.4593 9.51998 49.7821 9.64933C51.1407 9.78208 51.8013 11.5283 51.6278 14.7291ZM112.461 16.526C112.129 16.526 111.978 16.8685 111.852 17.4446C111.417 19.4486 110.96 19.9008 110.371 19.9008C109.712 19.9008 109.12 18.9087 108.968 16.9225C108.849 15.3607 108.868 12.4855 109.021 9.62542C109.052 9.03778 108.89 8.45635 107.314 7.88376C106.635 7.63749 105.65 7.27484 105.159 8.45974C103.772 11.8073 103.229 14.465 103.101 15.5444C103.095 15.6003 103.026 15.6118 103.014 15.4812C102.933 14.6165 102.751 13.0451 102.728 9.74385C102.724 9.09972 102.588 8.55143 101.877 8.10255C101.415 7.81127 100.014 7.29612 99.51 7.909C99.073 8.41022 98.5669 9.75911 98.041 11.358C97.6136 12.6576 97.3159 13.5367 97.3159 13.5367C97.3159 13.5367 97.3216 10.0302 97.3266 8.70018C97.3289 8.19839 96.9847 8.03119 96.881 8.00088C96.4138 7.8655 95.4935 7.63899 95.1028 7.63899C94.6208 7.63899 94.5027 7.90824 94.5027 8.30082C94.5027 8.35241 94.4267 12.9174 94.4267 16.1097C94.4267 16.2484 94.4268 16.3996 94.4274 16.5604C94.1608 18.0275 93.2962 20.0193 92.3559 20.0193C91.4144 20.0193 90.9703 19.1866 90.9703 15.381C90.9703 13.1611 91.0369 12.1955 91.0697 10.5898C91.0887 9.66496 91.1254 8.95474 91.1233 8.79357C91.1164 8.29932 90.2617 8.05021 89.8641 7.95814C89.4645 7.8655 89.1173 7.82935 88.8462 7.84479C88.4625 7.86663 88.191 8.11818 88.191 8.46444C88.191 8.65028 88.193 9.00313 88.193 9.00313C87.6988 8.22645 86.9038 7.68587 86.3749 7.52922C84.9503 7.10614 83.4638 7.48121 82.3426 9.05002C81.4514 10.2967 80.9142 11.7086 80.7028 13.7372C80.5482 15.2204 80.5986 16.7242 80.8734 17.9961C80.5414 19.4312 79.9251 20.0193 79.2503 20.0193C78.2707 20.0193 77.5604 18.4203 77.6429 15.6548C77.6973 13.8359 78.0613 12.5593 78.4591 10.7126C78.6288 9.92536 78.491 9.5132 78.1453 9.11818C77.8282 8.75591 77.1526 8.57083 76.1814 8.79846C75.4897 8.96077 74.5006 9.13531 73.5957 9.26937C73.5957 9.26937 73.6503 9.05152 73.6951 8.66742C73.9305 6.65312 71.7416 6.81655 71.0433 7.45993C70.6264 7.84404 70.3426 8.29706 70.2349 9.11159C70.0642 10.4042 71.1184 11.0139 71.1184 11.0139C70.7725 12.5973 69.9246 14.6655 69.0493 16.1609C68.5805 16.962 68.2218 17.5557 67.7588 18.1868C67.7571 17.9519 67.7558 17.7167 67.755 17.4828C67.7445 14.1541 67.7887 11.5345 67.8083 10.59C67.8273 9.66515 67.8644 8.97376 67.8623 8.81259C67.8571 8.45126 67.646 8.31457 67.2069 8.14172C66.8187 7.98883 66.3596 7.88301 65.8834 7.84611C65.2824 7.79941 64.9203 8.11799 64.9298 8.49494C64.9316 8.56612 64.9317 9.00313 64.9317 9.00313C64.4374 8.22645 63.6424 7.68587 63.1135 7.52922C61.689 7.10633 60.2024 7.48121 59.0812 9.05002C58.1902 10.2967 57.6067 12.046 57.4414 13.7218C57.2874 15.2836 57.3158 16.6107 57.5257 17.7289C57.2992 18.8485 56.648 20.0193 55.9116 20.0193C54.9701 20.0193 54.4344 19.1866 54.4344 15.381C54.4344 13.1611 54.5011 12.1955 54.5339 10.59C54.5529 9.66515 54.5896 8.95474 54.5875 8.79376C54.5806 8.2995 53.7259 8.0504 53.3283 7.95814C52.9121 7.86192 52.5529 7.82653 52.2771 7.84705C51.9131 7.87397 51.6572 8.1999 51.6572 8.44298V9.00313C51.163 8.22645 50.368 7.68587 49.8391 7.52922C48.4145 7.10633 46.9363 7.48723 45.8068 9.05002C45.0702 10.069 44.4739 11.1987 44.167 13.6996C44.0783 14.4222 44.0391 15.0991 44.0442 15.7316C43.7505 17.528 42.4532 19.5982 41.392 19.5982C40.771 19.5982 40.1796 18.3938 40.1796 15.8268C40.1796 12.4076 40.3912 7.53939 40.427 7.07018C40.427 7.07018 41.7678 7.04739 42.0275 7.04438C42.6962 7.03704 43.302 7.05285 44.1928 7.00729C44.6396 6.9845 45.07 5.38105 44.6089 5.1826C44.3999 5.09278 42.9228 5.01408 42.3372 5.00165C41.8448 4.99054 40.4741 4.88906 40.4741 4.88906C40.4741 4.88906 40.597 1.65767 40.6257 1.31631C40.6499 1.0318 40.2818 0.885317 40.0708 0.796446C39.5575 0.579351 39.0983 0.475416 38.5539 0.363197C37.8019 0.208048 37.4607 0.359808 37.3941 0.994524C37.2937 1.9578 37.2418 4.77929 37.2418 4.77929C36.6899 4.77929 34.8048 4.6714 34.2527 4.6714C33.7398 4.6714 33.1862 6.87718 33.8953 6.90429C34.7112 6.93593 36.1329 6.96342 37.0755 6.99166C37.0755 6.99166 37.0335 11.9402 37.0335 13.4682C37.0335 13.6307 37.0343 13.7871 37.0352 13.9391C36.5165 16.6427 34.6893 18.1032 34.6893 18.1032C35.0817 16.3145 34.2802 14.9713 32.8364 13.8342C32.3045 13.4153 31.2544 12.622 30.0795 11.7527C30.0795 11.7527 30.76 11.0822 31.3634 9.73275C31.791 8.77681 31.8095 7.68324 30.76 7.44204C29.0258 7.04325 27.596 8.31683 27.1695 9.67645C26.8391 10.7299 27.0153 11.5113 27.6626 12.3232C27.7099 12.3825 27.7611 12.4431 27.814 12.5041C27.4226 13.2586 26.8848 14.2744 26.4294 15.0622C25.1652 17.2494 24.2102 18.9793 23.4885 18.9793C22.9116 18.9793 22.9193 17.2228 22.9193 15.5783C22.9193 14.1607 23.024 12.0293 23.1076 9.82256C23.1353 9.09276 22.7704 8.67702 22.1586 8.30044C21.787 8.07168 20.9937 7.62186 20.5343 7.62186C19.8467 7.62186 17.8627 7.71544 15.9881 13.1379C15.7518 13.8214 15.2877 15.0667 15.2877 15.0667L15.3278 8.54597C15.3278 8.39308 15.2462 8.24528 15.0598 8.14417C14.7439 7.97264 13.9002 7.62186 13.15 7.62186C12.7927 7.62186 12.6142 7.78811 12.6142 8.1195L12.5488 18.3213C12.5488 19.0966 12.569 20.0008 12.6456 20.3962C12.7221 20.7922 12.8458 21.1143 12.9988 21.306C13.1519 21.4973 13.3289 21.6432 13.6206 21.7035C13.8921 21.7594 15.3792 21.9503 15.4564 21.3821C15.549 20.701 15.5526 19.9645 16.3334 17.2173C17.549 12.9404 19.1336 10.8536 19.8789 10.1125C20.0091 9.98298 20.1579 9.97526 20.1507 10.1873C20.1189 11.1249 20.0071 13.4682 19.9318 15.4586C19.7299 20.7856 20.699 21.773 22.0839 21.773C23.1434 21.773 24.6369 20.7202 26.2379 18.0554C27.236 16.3947 28.2051 14.7664 28.9014 13.5928C29.3866 14.0421 29.9311 14.5254 30.4753 15.0419C31.7398 16.242 32.155 17.3825 31.8795 18.4644C31.6688 19.2915 30.8754 20.1439 29.4632 19.3154C29.0516 19.0737 28.876 18.8869 28.4621 18.6144C28.2397 18.4681 27.9003 18.4243 27.6967 18.5777C27.168 18.9763 26.8656 19.4834 26.693 20.1111C26.525 20.7219 27.1368 21.0449 27.7709 21.3273C28.3169 21.5704 29.4905 21.7907 30.239 21.8157C33.1552 21.9132 35.4912 20.4077 37.1175 16.5241C37.4086 19.8782 38.6475 21.776 40.8 21.776C42.2391 21.776 43.6819 19.9159 44.3129 18.0859C44.494 18.8319 44.7621 19.4806 45.1084 20.0292C46.767 22.6572 49.9847 22.0915 51.6009 19.86C52.1006 19.1705 52.1767 18.9227 52.1767 18.9227C52.4124 21.0298 54.1093 21.766 55.0808 21.766C56.169 21.766 57.2925 21.2516 58.0799 19.4789C58.1721 19.6713 58.2729 19.8551 58.3828 20.0292C60.0415 22.6572 63.2591 22.0915 64.8754 19.86C64.9516 19.7553 65.0177 19.6604 65.0755 19.5751L65.1229 20.9592C65.1229 20.9592 64.2009 21.805 63.6349 22.3239C61.1407 24.6099 59.2459 26.3438 59.1066 28.363C58.9292 30.9377 61.016 31.8945 62.5973 32.0199C64.2734 32.153 65.7113 31.2263 66.5938 29.9294C67.3705 28.7878 67.8789 26.3308 67.8416 23.9042C67.8268 22.9324 67.8023 21.6969 67.7831 20.3725C68.6586 19.3557 69.645 18.0705 70.5533 16.5664C71.5432 14.9272 72.604 12.7258 73.1472 11.0125C73.1472 11.0125 74.0688 11.0204 75.0525 10.956C75.3671 10.9355 75.4575 10.9997 75.3993 11.2304C75.3291 11.509 74.1566 16.0313 75.2266 19.0439C75.9591 21.1062 77.6102 21.7698 78.5891 21.7698C79.735 21.7698 80.8312 20.9044 81.4186 19.6193C81.4894 19.7626 81.5634 19.9012 81.6442 20.0292C83.3028 22.6572 86.5092 22.0882 88.1367 19.86C88.5041 19.3572 88.7125 18.9227 88.7125 18.9227C89.0618 21.1034 90.7577 21.7771 91.7291 21.7771C92.7409 21.7771 93.7012 21.3623 94.4803 19.5188C94.5129 20.3305 94.5641 20.9942 94.6451 21.2034C94.6944 21.3314 94.9819 21.492 95.1911 21.5696C96.1167 21.9129 97.0608 21.7506 97.4101 21.6799C97.652 21.631 97.8407 21.4369 97.8665 20.9356C97.9343 19.6195 97.8926 17.4083 98.2916 15.7647C98.9614 13.0067 99.5861 11.9368 99.8825 11.4072C100.048 11.1104 100.235 11.0615 100.242 11.3756C100.256 12.011 100.288 13.8771 100.547 16.3844C100.738 18.2283 100.992 19.3183 101.188 19.6632C101.746 20.6496 102.436 20.6963 102.997 20.6963C103.354 20.6963 104.101 20.5977 104.035 19.9699C104.002 19.664 104.059 17.773 104.719 15.0558C105.151 13.2814 105.869 11.6783 106.129 11.092C106.224 10.8758 106.269 11.0462 106.267 11.0794C106.213 12.3014 106.09 16.2983 106.588 18.4843C107.263 21.4457 109.215 21.7771 109.895 21.7771C111.347 21.7771 112.535 20.6724 112.935 17.7656C113.032 17.0662 112.889 16.526 112.461 16.526Z" fill="#A7AAB4"/>
</g>
<defs>
<clipPath id="clip0_812_802">
<rect width="112.219" height="32" fill="white" transform="translate(0.915527 0.212158)"/>
</clipPath>
</defs>
</svg>
