<svg width="144" height="33" viewBox="0 0 144 33" fill="none" xmlns="http://www.w3.org/2000/svg">
<g clip-path="url(#clip0_812_806)">
<path d="M16.3077 0.212158C25.2402 0.212158 32.4807 7.37481 32.4807 16.2111C32.4807 25.0475 25.2402 32.2101 16.3077 32.2101C7.37531 32.2101 0.134766 25.0475 0.134766 16.2111C0.134766 7.37481 7.37531 0.212158 16.3077 0.212158ZM89.9138 8.97651C93.716 8.97651 96.7905 12.2159 96.7905 16.2111C96.7905 20.2064 93.716 23.4458 89.9138 23.4458C88.1369 23.4458 86.4641 22.7418 85.2176 21.5017L85.1293 21.4122V28.2689L85.1274 28.3066C85.109 28.493 84.9556 28.6447 84.7672 28.663L84.729 28.6648H82.2913L82.2532 28.663C82.0647 28.6447 81.9113 28.493 81.8929 28.3066L81.891 28.2689V9.73237L81.8929 9.69466C81.9113 9.50828 82.0647 9.35652 82.2532 9.33828L82.2913 9.33644H84.729L84.7672 9.33828C84.9556 9.35652 85.109 9.50828 85.1274 9.69466L85.1293 9.73237V11.0101C86.3845 9.71437 88.1128 8.97651 89.9138 8.97651ZM12.3418 8.61658C6.79315 14.1055 8.576 23.8597 8.576 23.8597C8.576 23.8597 18.4544 25.6054 23.9849 20.1344C27.0594 17.093 26.9502 12.0359 23.7302 8.86853C20.5102 5.70112 15.4163 5.57515 12.3418 8.61658ZM102.212 3.75749L102.25 3.75933C102.438 3.77757 102.592 3.92933 102.61 4.11571L102.612 4.15342V11.0101C103.867 9.71437 105.596 8.97651 107.397 8.97651C111.199 8.97651 114.273 12.2159 114.273 16.2111C114.273 20.2064 111.199 23.4458 107.397 23.4458C105.62 23.4458 103.947 22.7418 102.7 21.5017L102.612 21.4122V22.6899L102.61 22.7276C102.592 22.914 102.438 23.0658 102.25 23.084L102.212 23.0858H99.7741C99.5686 23.0858 99.3954 22.9264 99.3757 22.7276L99.3739 22.6899V4.15342C99.3739 3.95016 99.535 3.77879 99.736 3.75933L99.7741 3.75749H102.212ZM123.242 8.97651C127.354 8.97651 130.683 12.2159 130.683 16.2111C130.683 20.2064 127.354 23.4458 123.242 23.4458C119.131 23.4458 115.802 20.2064 115.802 16.2111C115.802 12.2159 119.131 8.97651 123.242 8.97651ZM70.1206 8.97651C71.8975 8.97651 73.5703 9.68045 74.8169 10.9206L74.9052 11.0101V9.73237L74.907 9.69466C74.9255 9.50828 75.0789 9.35652 75.2673 9.33828L75.3054 9.33644H77.7432C77.9487 9.33644 78.1219 9.49586 78.1416 9.69466L78.1434 9.73237V22.6899L78.1416 22.7276C78.1231 22.914 77.9697 23.0658 77.7813 23.084L77.7432 23.0858H75.3054L75.2673 23.084C75.0789 23.0658 74.9255 22.914 74.907 22.7276L74.9052 22.6899V21.4122C73.6499 22.7079 71.9216 23.4458 70.1206 23.4458C66.3184 23.4458 63.2439 20.2064 63.2439 16.2111C63.2439 12.2159 66.3184 8.97651 70.1206 8.97651ZM143.454 9.31844C143.527 9.31844 143.599 9.33644 143.654 9.37243C143.807 9.47366 143.865 9.68562 143.782 9.84517L143.763 9.87634L139.579 16.1752L143.799 22.528C143.836 22.5999 143.854 22.6719 143.854 22.7439C143.854 22.9295 143.71 23.0835 143.527 23.102L143.49 23.1038H140.707C140.505 23.1038 140.319 23.0118 140.206 22.8561L140.179 22.8159L137.669 18.6767L135.158 22.8159C135.057 22.982 134.879 23.0868 134.681 23.1019L134.631 23.1038H131.811C131.738 23.1038 131.665 23.0858 131.611 23.0499C131.457 22.9486 131.4 22.7367 131.483 22.5771L131.501 22.546L135.722 16.1931L131.538 9.89433C131.501 9.84034 131.483 9.76836 131.483 9.69637C131.483 9.51078 131.627 9.35683 131.81 9.33831L131.847 9.33644H134.667C134.868 9.33644 135.054 9.42845 135.168 9.58415L135.195 9.62439L137.65 13.6916L140.106 9.60639C140.207 9.44027 140.385 9.33548 140.584 9.32034L140.634 9.31844H143.454ZM55.9488 8.97651C58.7369 8.97651 61.0093 11.0702 61.06 13.692L61.0608 13.7816L61.079 22.6899L61.0772 22.7276C61.0587 22.914 60.9053 23.0658 60.7169 23.084L60.6788 23.0858H58.2228C58.0174 23.0858 57.8441 22.9264 57.8245 22.7276L57.8226 22.6899V14.7714C57.8226 13.0977 56.5309 11.82 54.9846 11.82C53.6088 11.82 52.4787 13.0004 52.2319 14.543L52.2194 14.6274L52.2376 22.6899L52.2357 22.7276C52.2173 22.914 52.0638 23.0658 51.8754 23.084L51.8373 23.0858H49.3814C49.1759 23.0858 49.0027 22.9264 48.983 22.7276L48.9811 22.6899V14.7714C48.9811 13.0977 47.6895 11.82 46.1431 11.82C44.6762 11.82 43.4732 13.1599 43.347 14.8473L43.3415 14.9334V22.6899L43.3397 22.7276C43.3212 22.914 43.1678 23.0658 42.9794 23.084L42.9413 23.0858H40.5035L40.4654 23.084C40.277 23.0658 40.1236 22.914 40.1051 22.7276L40.1033 22.6899V9.73237L40.1051 9.69466C40.1236 9.50828 40.277 9.35652 40.4654 9.33828L40.5035 9.33644H42.9413L42.9794 9.33828C43.1678 9.35652 43.3212 9.50828 43.3397 9.69466L43.3415 9.73237V10.8841C44.2147 9.69637 45.6156 8.97651 47.1073 8.97651C49.0175 8.95851 50.8004 10.0023 51.6918 11.676C52.4741 10.0383 54.1296 8.9945 55.9488 8.97651ZM106.833 11.874C104.552 11.874 102.714 13.733 102.633 16.066L102.63 16.1572V16.2651C102.648 18.6407 104.522 20.5483 106.833 20.5483C109.143 20.5483 111.035 18.6047 111.035 16.2111C111.035 13.8176 109.161 11.874 106.833 11.874ZM123.224 11.874C120.914 11.874 119.022 13.8176 119.022 16.2111C119.022 18.6047 120.895 20.5483 123.224 20.5483C125.534 20.5483 127.426 18.6047 127.426 16.2111C127.426 13.8176 125.534 11.874 123.224 11.874ZM70.6846 11.874C68.3741 11.874 66.4821 13.8176 66.4821 16.2111C66.4821 18.6047 68.356 20.5483 70.6846 20.5483C72.9657 20.5483 74.8213 18.6887 74.8854 16.3551L74.887 16.2651V16.1572C74.8688 13.7816 72.995 11.874 70.6846 11.874ZM89.3499 11.874C87.0691 11.874 85.2315 13.733 85.1498 16.066L85.1475 16.1572V16.2651C85.1657 18.6407 87.0395 20.5483 89.3499 20.5483C91.6785 20.5483 93.5523 18.6047 93.5523 16.2111C93.5523 13.8176 91.6785 11.874 89.3499 11.874ZM18.1634 9.58839L19.7461 12.8098L23.0025 14.3755L19.7461 15.9412L18.1634 19.1626L16.5806 15.9412L13.3242 14.3755L16.5806 12.8098L18.1634 9.58839Z" fill="#A7AAB4"/>
</g>
<defs>
<clipPath id="clip0_812_806">
<rect width="143.719" height="32" fill="white" transform="translate(0.134766 0.212158)"/>
</clipPath>
</defs>
</svg>
