<svg width="113" height="33" viewBox="0 0 113 33" fill="none" xmlns="http://www.w3.org/2000/svg">
<g clip-path="url(#clip0_812_798)">
<path d="M104.125 27.5807H107.345L112.916 13.4621H109.729L107.426 20.4939L105 13.4621H101.443L105.679 23.6603L104.125 27.5807ZM88.1429 16.8137V24.0508H84.8943V13.4621H87.1768L87.8554 14.3871C88.7393 13.6472 89.685 13.2152 90.7749 13.2152C92.2349 13.2152 93.3449 13.6472 94.0235 14.7168C95.0103 13.8115 96.0591 13.2152 97.3958 13.2152C99.9041 13.2152 101.364 14.5109 101.364 18.0267V24.0508H98.1155V18.3969C98.1155 16.7726 97.4572 16.2995 96.4085 16.2995C95.7918 16.2995 95.2781 16.4638 94.702 16.834C94.7436 17.2042 94.7639 17.5947 94.7639 18.0267V24.0508H91.5153V18.3969C91.5153 16.7726 90.857 16.2995 89.788 16.2995C89.1916 16.2995 88.6982 16.4435 88.1429 16.8137ZM76.8127 17.7184H80.9869C80.7607 16.3411 80.0203 15.6828 78.9102 15.6828C77.9639 15.6828 77.0597 16.2381 76.8127 17.7184ZM79.1364 24.2567C76.011 24.2567 73.5022 22.7146 73.5022 18.6434C73.5022 14.8395 75.9288 13.1949 78.7251 13.1949C82.097 13.1949 83.598 15.5591 83.598 19.2808H76.7919C77.0186 21.1105 78.1495 21.6456 79.6506 21.6456C81.1023 21.6456 82.2379 21.2873 83.1166 20.6961L82.6757 23.273C81.837 23.9208 80.8304 24.2567 79.1364 24.2567ZM67.0398 21.5223C67.7797 21.5223 68.335 21.3986 68.9106 20.967V16.3613C68.3969 16.0525 67.8832 15.909 67.1428 15.909C65.5596 15.909 64.6548 16.978 64.6548 18.7666C64.6548 20.5147 65.5803 21.5223 67.0398 21.5223ZM69.5481 23.2699C68.7052 23.9073 67.7392 24.2978 66.3613 24.2978C63.4621 24.2978 61.3652 22.5092 61.3652 18.8285C61.3652 15.1686 63.7709 13.1949 66.8547 13.1949C67.5743 13.1949 68.2737 13.2978 68.9106 13.5443V9.04987H72.1597V24.0508H70.1034L69.5481 23.2699ZM47.6001 17.7798V9.93221H50.9719V17.7184C50.9719 20.5147 52.2261 21.0903 53.9533 21.0903C55.8246 21.0903 56.7907 20.2677 56.7907 17.7184V9.93221H60.1833V17.7798C60.1833 22.4062 58.1685 24.3389 53.789 24.3389C49.7178 24.3389 47.6001 22.6735 47.6001 17.7798Z" fill="#A7AAB4"/>
<path d="M39.0065 18.3682C38.8697 18.2584 38.7158 18.1846 38.5484 18.1529C37.5595 19.1387 36.3527 20.177 35.2811 20.8748C34.7866 21.2034 34.1648 21.3677 33.753 21.3677C32.8051 21.3677 32.3933 20.4641 32.2696 19.0274C32.1047 17.0979 31.9935 14.7868 31.9935 11.2147C31.9935 7.5512 31.1621 5.06065 28.9471 4.86515C28.8535 4.85684 28.7589 4.85112 28.6601 4.85112C27.3004 4.85112 26.6411 5.54888 25.7759 7.31462C25.0345 8.83338 23.8807 11.0504 21.7386 15.2381C19.8844 18.8512 17.8244 22.0535 16.0524 24.2706C15.559 24.8852 15.169 25.3074 14.8025 25.5476C14.5576 25.7087 14.3226 25.7893 14.0751 25.7893C13.3758 25.7893 12.8652 25.1992 12.6946 23.825C12.6541 23.4985 12.6328 23.1277 12.6328 22.7102C12.6328 19.8776 13.7044 15.2792 15.558 8.50478C16.9176 3.57829 16.341 0.212158 13.3742 0.212158C13.3695 0.212158 13.3648 0.212158 13.3602 0.212158C13.3539 0.212158 13.3477 0.212158 13.3409 0.212158L13.3388 0.212678C12.6671 0.220477 12.1102 0.463812 11.5736 0.886008C11.0454 1.30196 10.5166 2.20043 10.0231 3.40827C9.4668 4.76896 6.08403 11.5543 0.699991 15.0499C0.636557 16.3788 1.38892 17.7073 2.9134 17.8513C4.30114 17.9829 5.28643 17.3979 6.5551 16.5457C6.45995 16.9695 6.37208 17.3657 6.29201 17.7281C6.19738 18.156 6.11679 18.5252 6.05231 18.8231C5.9556 19.2666 5.89425 19.5521 5.87605 19.6311C5.69979 20.4396 5.57396 21.2076 5.49233 21.9365C4.73321 28.7224 7.87836 32.0708 11.5617 32.0708C12.1773 32.0708 12.7872 31.9975 13.3929 31.8436C17.4511 30.8146 21.358 26.1595 25.9824 15.4435C25.9122 16.6092 25.9049 17.6979 25.9553 18.7082C26.26 24.8498 28.6892 26.6925 32.1214 26.6925C34.7169 26.6925 37.1477 25.338 38.3836 23.6544C39.2904 22.4638 39.6611 21.1499 39.6611 20.1235C39.6611 19.3269 39.4084 18.691 39.0065 18.3682Z" fill="#A7AAB4"/>
</g>
<defs>
<clipPath id="clip0_812_798">
<rect width="112.219" height="32" fill="white" transform="translate(0.696289 0.212158)"/>
</clipPath>
</defs>
</svg>
