<svg width="23" height="23" viewBox="0 0 23 23" fill="none" xmlns="http://www.w3.org/2000/svg">
<path d="M11.199 6.88538C10.0544 6.88538 8.95671 7.34007 8.14735 8.14943C7.33799 8.95878 6.8833 10.0565 6.8833 11.2011C6.8833 12.3457 7.33799 13.4434 8.14735 14.2528C8.95671 15.0622 10.0544 15.5168 11.199 15.5168C12.3436 15.5168 13.4414 15.0622 14.2507 14.2528C15.0601 13.4434 15.5148 12.3457 15.5148 11.2011C15.5148 10.0565 15.0601 8.95878 14.2507 8.14943C13.4414 7.34007 12.3436 6.88538 11.199 6.88538V6.88538ZM11.199 14.0039C10.4554 14.0039 9.7423 13.7085 9.2165 13.1827C8.69069 12.6569 8.3953 11.9438 8.3953 11.2002C8.3953 10.4566 8.69069 9.74344 9.2165 9.21764C9.7423 8.69184 10.4554 8.39644 11.199 8.39644C11.9426 8.39644 12.6558 8.69184 13.1816 9.21764C13.7074 9.74344 14.0028 10.4566 14.0028 11.2002C14.0028 11.9438 13.7074 12.6569 13.1816 13.1827C12.6558 13.7085 11.9426 14.0039 11.199 14.0039V14.0039Z" fill="white"/>
<path d="M15.6856 7.73272C16.2413 7.73272 16.6918 7.28226 16.6918 6.72659C16.6918 6.17092 16.2413 5.72046 15.6856 5.72046C15.13 5.72046 14.6795 6.17092 14.6795 6.72659C14.6795 7.28226 15.13 7.73272 15.6856 7.73272Z" fill="white"/>
<path d="M19.1641 5.70374C18.948 5.14578 18.6178 4.63907 18.1947 4.21606C17.7715 3.79306 17.2647 3.46306 16.7066 3.24721C16.0536 3.00208 15.3637 2.86953 14.6664 2.85521C13.7676 2.81601 13.4829 2.80481 11.2037 2.80481C8.92449 2.80481 8.63235 2.80481 7.74102 2.85521C7.04418 2.8688 6.35479 3.00137 5.70262 3.24721C5.14443 3.46281 4.63747 3.79272 4.21426 4.21576C3.79106 4.6388 3.46097 5.14563 3.24515 5.70374C2.99997 6.35671 2.86773 7.04666 2.85409 7.74401C2.81395 8.64188 2.80182 8.92654 2.80182 11.2067C2.80182 13.4859 2.80182 13.7761 2.85409 14.6693C2.86809 15.3675 2.99969 16.0563 3.24515 16.7105C3.46157 17.2685 3.79199 17.7751 4.21529 18.1981C4.6386 18.621 5.14548 18.9511 5.70355 19.1671C6.35449 19.4221 7.04417 19.5641 7.74289 19.5871C8.64169 19.6263 8.92635 19.6384 11.2056 19.6384C13.4848 19.6384 13.7769 19.6384 14.6682 19.5871C15.3655 19.5729 16.0554 19.4407 16.7085 19.196C17.2664 18.9797 17.7731 18.6494 18.1962 18.2263C18.6193 17.8031 18.9496 17.2964 19.166 16.7385C19.4114 16.0852 19.543 15.3964 19.557 14.6983C19.5972 13.8004 19.6093 13.5157 19.6093 11.2356C19.6093 8.95548 19.6093 8.66614 19.557 7.77294C19.5462 7.06573 19.4132 6.36571 19.1641 5.70374V5.70374ZM18.0273 14.6003C18.0213 15.1382 17.9231 15.671 17.737 16.1757C17.5969 16.5387 17.3823 16.8683 17.1071 17.1433C16.8319 17.4183 16.5022 17.6327 16.1392 17.7727C15.64 17.9579 15.1128 18.0561 14.5805 18.0629C13.6938 18.104 13.4437 18.1143 11.1701 18.1143C8.89462 18.1143 8.66222 18.1143 7.75875 18.0629C7.22669 18.0564 6.69972 17.9582 6.20102 17.7727C5.83673 17.6336 5.50569 17.4196 5.22932 17.1445C4.95295 16.8694 4.7374 16.5394 4.59662 16.1757C4.41317 15.6765 4.31504 15.1499 4.30635 14.618C4.26622 13.7313 4.25689 13.4812 4.25689 11.2076C4.25689 8.93308 4.25689 8.70068 4.30635 7.79628C4.31239 7.2587 4.41056 6.72613 4.59662 6.22174C4.88129 5.48534 5.46462 4.90574 6.20102 4.62388C6.69997 4.43921 7.22678 4.34104 7.75875 4.33361C8.64635 4.29348 8.89555 4.28228 11.1701 4.28228C13.4446 4.28228 13.678 4.28228 14.5805 4.33361C15.1129 4.34001 15.6402 4.43821 16.1392 4.62388C16.5022 4.76413 16.8318 4.97873 17.107 5.2539C17.3822 5.52908 17.5968 5.85874 17.737 6.22174C17.9205 6.72103 18.0186 7.24763 18.0273 7.77948C18.0674 8.66708 18.0777 8.91628 18.0777 11.1908C18.0777 13.4644 18.0777 13.7089 18.0376 14.6012H18.0273V14.6003Z" fill="white"/>
</svg>
