<svg width="20" height="20" viewBox="0 0 20 20" fill="none" xmlns="http://www.w3.org/2000/svg">
<path d="M18.2827 5.51482C17.4682 4.10337 16.2961 2.93155 14.8844 2.11749C13.4536 1.28402 11.8922 0.866821 10.2 0.866821C8.5079 0.866821 6.94643 1.28402 5.5147 2.11749C4.0839 2.95095 2.95083 4.08402 2.11737 5.51482C1.2839 6.94562 0.866699 8.50802 0.866699 10.2002C0.866699 11.8923 1.28297 13.4547 2.11737 14.8855C2.93153 16.2972 4.10374 17.469 5.51563 18.2828C6.94643 19.1163 8.5079 19.5335 10.2 19.5335C11.8922 19.5335 13.4536 19.1163 14.8854 18.2828C16.297 17.4688 17.4692 16.2969 18.2836 14.8855C19.1171 13.4547 19.5334 11.8923 19.5334 10.2002C19.5334 8.50802 19.1171 6.94562 18.2827 5.51482ZM10.2 2.41615C12.0667 2.41615 13.7206 3.01349 15.1654 4.20722C14.3067 5.30296 13.0318 6.20456 11.3387 6.91389C10.4035 5.22176 9.3899 3.80869 8.2951 2.67655C8.91558 2.50499 9.55627 2.41741 10.2 2.41615ZM4.1427 5.34682C4.82519 4.48015 5.68873 3.77301 6.67297 3.27482C7.80417 4.39575 8.84297 5.79482 9.7903 7.47482C7.92363 8.03482 5.95057 8.31482 3.87203 8.31482C3.33723 8.31482 2.9331 8.30269 2.6587 8.27749C2.94474 7.20824 3.45012 6.21021 4.1427 5.34682ZM2.41603 10.2002C2.41603 10.1498 2.41883 10.0882 2.42537 10.0135C2.4319 9.93882 2.4347 9.87722 2.4347 9.82682C2.67177 9.83989 3.03297 9.84549 3.5183 9.84549C6.00657 9.84549 8.32123 9.50296 10.4614 8.81882C10.6359 9.16696 10.817 9.55896 11.0027 9.99482C9.7707 10.2683 8.50697 10.9338 7.21243 11.9922C5.9179 13.0506 4.97337 14.164 4.37603 15.3335C3.06937 13.8523 2.41603 12.1415 2.41603 10.2002ZM10.2 17.9842C8.4323 17.9842 6.84563 17.4363 5.4391 16.3424C6.00003 15.2346 6.8615 14.1752 8.02537 13.1682C9.1883 12.1602 10.3428 11.532 11.488 11.2828C12.2104 13.2792 12.699 15.3526 12.944 17.4615C12.0694 17.8033 11.1391 17.9805 10.2 17.9842ZM16.808 14.2882C16.1971 15.2724 15.3745 16.1081 14.4 16.7344C14.176 14.7931 13.7467 12.9012 13.113 11.0588C13.9828 10.9972 14.7603 10.9655 15.4463 10.9655C16.192 10.9655 17.0199 10.9972 17.928 11.0588C17.8062 12.2067 17.4231 13.3114 16.808 14.2882ZM15.6507 9.62149C14.568 9.62149 13.5666 9.66536 12.6454 9.75216C12.4502 9.24142 12.2386 8.73715 12.0107 8.24015C13.939 7.39455 15.3072 6.36789 16.1164 5.16015C17.2364 6.47989 17.8468 7.98535 17.9458 9.67749C17.1879 9.64015 16.4226 9.62149 15.6507 9.62149Z" fill="white"/>
</svg>
