<svg width="23" height="23" viewBox="0 0 23 23" fill="none" xmlns="http://www.w3.org/2000/svg">
<path d="M19.2822 6.51482C18.4678 5.10337 17.2956 3.93155 15.8839 3.11749C14.4531 2.28402 12.8917 1.86682 11.1995 1.86682C9.50741 1.86682 7.94594 2.28402 6.51421 3.11749C5.08341 3.95095 3.95034 5.08402 3.11688 6.51482C2.28341 7.94562 1.86621 9.50802 1.86621 11.2002C1.86621 12.8923 2.28248 14.4547 3.11688 15.8855C3.93105 17.2972 5.10325 18.469 6.51514 19.2828C7.94594 20.1163 9.50741 20.5335 11.1995 20.5335C12.8917 20.5335 14.4531 20.1163 15.8849 19.2828C17.2966 18.4688 18.4687 17.2969 19.2831 15.8855C20.1166 14.4547 20.5329 12.8923 20.5329 11.2002C20.5329 9.50802 20.1166 7.94562 19.2822 6.51482ZM11.1995 3.41615C13.0662 3.41615 14.7201 4.01349 16.1649 5.20722C15.3062 6.30296 14.0313 7.20456 12.3382 7.91389C11.403 6.22176 10.3894 4.80869 9.29461 3.67655C9.91509 3.50499 10.5558 3.41741 11.1995 3.41615ZM5.14221 6.34682C5.8247 5.48015 6.68824 4.77301 7.67248 4.27482C8.80368 5.39575 9.84248 6.79482 10.7898 8.47482C8.92314 9.03482 6.95008 9.31482 4.87154 9.31482C4.33674 9.31482 3.93261 9.30269 3.65821 9.27749C3.94425 8.20824 4.44963 7.21021 5.14221 6.34682ZM3.41554 11.2002C3.41554 11.1498 3.41834 11.0882 3.42488 11.0135C3.43141 10.9388 3.43421 10.8772 3.43421 10.8268C3.67128 10.8399 4.03248 10.8455 4.51781 10.8455C7.00608 10.8455 9.32074 10.503 11.4609 9.81882C11.6354 10.167 11.8165 10.559 12.0022 10.9948C10.7702 11.2683 9.50648 11.9338 8.21194 12.9922C6.91741 14.0506 5.97288 15.164 5.37554 16.3335C4.06888 14.8523 3.41554 13.1415 3.41554 11.2002ZM11.1995 18.9842C9.43181 18.9842 7.84514 18.4363 6.43861 17.3424C6.99954 16.2346 7.86101 15.1752 9.02488 14.1682C10.1878 13.1602 11.3423 12.532 12.4875 12.2828C13.2099 14.2792 13.6985 16.3526 13.9435 18.4615C13.0689 18.8033 12.1386 18.9805 11.1995 18.9842ZM17.8075 15.2882C17.1966 16.2724 16.374 17.1081 15.3995 17.7344C15.1755 15.7931 14.7462 13.9012 14.1125 12.0588C14.9823 11.9972 15.7598 11.9655 16.4458 11.9655C17.1915 11.9655 18.0194 11.9972 18.9275 12.0588C18.8057 13.2067 18.4226 14.3114 17.8075 15.2882ZM16.6502 10.6215C15.5675 10.6215 14.5661 10.6654 13.6449 10.7522C13.4497 10.2414 13.2381 9.73715 13.0102 9.24015C14.9385 8.39455 16.3067 7.36789 17.1159 6.16015C18.2359 7.47989 18.8463 8.98535 18.9453 10.6775C18.1874 10.6402 17.4221 10.6215 16.6502 10.6215Z" fill="#111214"/>
</svg>
