<svg width="23" height="23" viewBox="0 0 23 23" fill="none" xmlns="http://www.w3.org/2000/svg">
<path d="M4.65053 6.71732C5.77837 6.71732 6.69267 5.80303 6.69267 4.67519C6.69267 3.54735 5.77837 2.63306 4.65053 2.63306C3.52269 2.63306 2.6084 3.54735 2.6084 4.67519C2.6084 5.80303 3.52269 6.71732 4.65053 6.71732Z" fill="#111214"/>
<path d="M8.6212 8.26474V19.5945H12.1389V13.9917C12.1389 12.5133 12.4171 11.0815 14.2501 11.0815C16.058 11.0815 16.0804 12.7718 16.0804 14.085V19.5954H19.6V13.3822C19.6 10.3302 18.9429 7.98474 15.3757 7.98474C13.6631 7.98474 12.5151 8.92461 12.0456 9.81407H11.998V8.26474H8.6212ZM2.88867 8.26474H6.412V19.5945H2.88867V8.26474Z" fill="#111214"/>
</svg>
