<svg width="23" height="23" viewBox="0 0 23 23" fill="none" xmlns="http://www.w3.org/2000/svg">
<path d="M11.1995 6.88538C10.0549 6.88538 8.9572 7.34007 8.14784 8.14943C7.33848 8.95878 6.88379 10.0565 6.88379 11.2011C6.88379 12.3457 7.33848 13.4434 8.14784 14.2528C8.9572 15.0622 10.0549 15.5168 11.1995 15.5168C12.3441 15.5168 13.4419 15.0622 14.2512 14.2528C15.0606 13.4434 15.5153 12.3457 15.5153 11.2011C15.5153 10.0565 15.0606 8.95878 14.2512 8.14943C13.4419 7.34007 12.3441 6.88538 11.1995 6.88538ZM11.1995 14.0039C10.4559 14.0039 9.74279 13.7085 9.21698 13.1827C8.69118 12.6569 8.39579 11.9438 8.39579 11.2002C8.39579 10.4566 8.69118 9.74344 9.21698 9.21764C9.74279 8.69184 10.4559 8.39644 11.1995 8.39644C11.9431 8.39644 12.6563 8.69184 13.1821 9.21764C13.7079 9.74344 14.0033 10.4566 14.0033 11.2002C14.0033 11.9438 13.7079 12.6569 13.1821 13.1827C12.6563 13.7085 11.9431 14.0039 11.1995 14.0039Z" fill="#111214"/>
<path d="M15.6858 7.73272C16.2415 7.73272 16.692 7.28226 16.692 6.72659C16.692 6.17092 16.2415 5.72046 15.6858 5.72046C15.1301 5.72046 14.6797 6.17092 14.6797 6.72659C14.6797 7.28226 15.1301 7.73272 15.6858 7.73272Z" fill="#111214"/>
<path d="M19.164 5.70374C18.948 5.14578 18.6178 4.63907 18.1946 4.21606C17.7714 3.79306 17.2646 3.46306 16.7066 3.24721C16.0535 3.00208 15.3637 2.86953 14.6663 2.85521C13.7675 2.81601 13.4828 2.80481 11.2036 2.80481C8.92443 2.80481 8.63229 2.80481 7.74096 2.85521C7.04412 2.8688 6.35473 3.00137 5.70256 3.24721C5.14437 3.46281 4.63741 3.79272 4.2142 4.21576C3.791 4.6388 3.4609 5.14563 3.24509 5.70374C2.99991 6.35671 2.86766 7.04666 2.85402 7.74401C2.81389 8.64188 2.80176 8.92654 2.80176 11.2067C2.80176 13.4859 2.80176 13.7761 2.85402 14.6693C2.86802 15.3675 2.99962 16.0563 3.24509 16.7105C3.46151 17.2685 3.79193 17.7751 4.21523 18.1981C4.63854 18.621 5.14542 18.9511 5.70349 19.1671C6.35443 19.4221 7.04411 19.5641 7.74283 19.5871C8.64163 19.6263 8.92629 19.6384 11.2055 19.6384C13.4847 19.6384 13.7768 19.6384 14.6682 19.5871C15.3655 19.5729 16.0553 19.4407 16.7084 19.196C17.2663 18.9797 17.773 18.6494 18.1961 18.2263C18.6193 17.8031 18.9495 17.2964 19.1659 16.7385C19.4114 16.0852 19.543 15.3964 19.557 14.6983C19.5971 13.8004 19.6092 13.5157 19.6092 11.2356C19.6092 8.95548 19.6092 8.66614 19.557 7.77294C19.5461 7.06573 19.4132 6.36571 19.164 5.70374ZM18.0272 14.6003C18.0212 15.1382 17.923 15.671 17.737 16.1757C17.5968 16.5387 17.3822 16.8683 17.107 17.1433C16.8318 17.4183 16.5021 17.6327 16.1391 17.7727C15.64 17.9579 15.1128 18.0561 14.5804 18.0629C13.6938 18.104 13.4436 18.1143 11.17 18.1143C8.89456 18.1143 8.66216 18.1143 7.75869 18.0629C7.22662 18.0564 6.69966 17.9582 6.20096 17.7727C5.83667 17.6336 5.50563 17.4196 5.22926 17.1445C4.95288 16.8694 4.73734 16.5394 4.59656 16.1757C4.41311 15.6765 4.31498 15.1499 4.30629 14.618C4.26616 13.7313 4.25682 13.4812 4.25682 11.2076C4.25682 8.93308 4.25682 8.70068 4.30629 7.79628C4.31232 7.2587 4.4105 6.72613 4.59656 6.22174C4.88123 5.48534 5.46456 4.90574 6.20096 4.62388C6.69991 4.43921 7.22672 4.34104 7.75869 4.33361C8.64629 4.29348 8.89549 4.28228 11.17 4.28228C13.4446 4.28228 13.6779 4.28228 14.5804 4.33361C15.1128 4.34001 15.6401 4.43821 16.1391 4.62388C16.5021 4.76413 16.8318 4.97873 17.1069 5.2539C17.3821 5.52908 17.5967 5.85874 17.737 6.22174C17.9204 6.72103 18.0185 7.24763 18.0272 7.77948C18.0674 8.66708 18.0776 8.91628 18.0776 11.1908C18.0776 13.4644 18.0776 13.7089 18.0375 14.6012H18.0272V14.6003Z" fill="#111214"/>
</svg>
