<svg width="40" height="41" viewBox="0 0 40 41" fill="none" xmlns="http://www.w3.org/2000/svg">
<path d="M1.064 32V7.948H10.696V12.624H5.908V16.46H10.444V21.08H5.908V32H1.064Z" fill="white"/>
<path d="M18.4076 32.224C16.4663 32.224 14.9916 31.636 13.9836 30.46C12.9756 29.2653 12.4716 27.5947 12.4716 25.448V13.996C12.4716 11.924 12.9756 10.3653 13.9836 9.32C14.9916 8.256 16.4663 7.724 18.4076 7.724C20.3489 7.724 21.8236 8.256 22.8316 9.32C23.8396 10.3653 24.3436 11.924 24.3436 13.996V25.448C24.3436 27.6133 23.8396 29.284 22.8316 30.46C21.8236 31.636 20.3489 32.224 18.4076 32.224ZM18.4076 27.8C18.8369 27.8 19.1263 27.6133 19.2756 27.24C19.4249 26.8667 19.4996 26.344 19.4996 25.672V13.912C19.4996 13.3893 19.4249 12.9693 19.2756 12.652C19.1449 12.316 18.8649 12.148 18.4356 12.148C17.6329 12.148 17.2316 12.7547 17.2316 13.968V25.7C17.2316 26.3907 17.3156 26.9133 17.4836 27.268C17.6516 27.6227 17.9596 27.8 18.4076 27.8Z" fill="white" fill-opacity="0.52"/>
<path d="M26.0048 32L28.5808 19.232L26.5368 7.92H31.2408L32.5008 16.208L33.5928 7.92H38.3248L36.2528 19.232L38.8288 32H33.9568L32.4448 22.592L30.9048 32H26.0048Z" fill="url(#paint0_linear_811_318)"/>
<defs>
<linearGradient id="paint0_linear_811_318" x1="20" y1="0" x2="20" y2="41" gradientUnits="userSpaceOnUse">
<stop stop-color="#FE390C"/>
<stop offset="1" stop-color="#521B0E"/>
</linearGradient>
</defs>
</svg>
